<?xml version="1.0" encoding="utf-8"?>
<!-- Generator: Adobe Illustrator 26.0.2, SVG Export Plug-In . SVG Version: 6.00 Build 0)  -->
<svg version="1.1" id="Шар_1" xmlns="http://www.w3.org/2000/svg" xmlns:xlink="http://www.w3.org/1999/xlink" x="0px" y="0px"
	 viewBox="0 0 700 4000" style="enable-background:new 0 0 700 4000;" xml:space="preserve">
<g>
	<defs>
		<path id="SVGID_1_" d="M224.3,2547.4v13.2c0,11.1,0,23.1-0.4,35.5h77.1v178.6h-42.3v-134.2h-36.8c-3.2,52.6-10.3,108.5-25.3,151.2
			c-9.9-5.1-29.6-12.4-41.1-15.4c22.9-61.5,26.5-155.9,26.5-215.8v-159.8l52.2,3c-0.4,4.3-3.2,6.8-9.9,7.7v91.4h28.8v-113.2
			l51.8,3.4c-0.4,3.4-3.2,6-9.9,7.3V2503h33.6v44.4H224.3z M306.9,2062.4v40.6H158.7v-40.6H306.9z M504.5,1278.3
			c-2.4,3.4-6.3,5.1-12.6,4.7c-30.8,32.5-69.2,67.1-106.7,97c4.3,1.3,8.7,3.4,12.6,4.7c-1.2,3.8-4.7,7.3-11.5,8.1v223h-52.6V1415
			c-35.2,25.6-87.7,57.3-131.2,79.9c-6.3-12-19.8-31.6-30-41.4c103.1-49.6,221.7-138.4,282.2-214.5L504.5,1278.3z M517.1,2852.8
			c-1.2,3.4-4,5.6-8.3,6.8C476,2913,416.7,2976.3,363,3020.3c23.3,20.1,53,48.7,70,69.2l-43.9,41.4
			c-43.9-54.3-113.8-116.6-173.5-153.8l34.8-38.5c23.7,13.7,49.8,32.5,73.5,50.8c41.1-33.3,82.2-77.8,105.9-112.4H174.5v-50.8h294.8
			l6.7-4.3L517.1,2852.8z M295.4,2244.8V2376h-79v16.2h-39.9v-147.4H295.4z M292.6,2124.4v38.5h-115v-38.5H292.6z M177.6,2223.1
			v-38.9h115v38.9H177.6z M511.2,1775.8H374c-7.5,100.4-33.6,167.1-120.1,221.7c-9.9-11.1-28.8-26.9-41.5-36.3
			c78.6-47,102.8-99.5,109.9-185.4H178.8v-51.7h145.8c0.4-15.4,0.4-62.8,0.4-108.1l65.2,4.3c-0.8,5.6-4.3,8.5-11.9,9.8
			c-0.4,34.2-0.4,65.4-1.6,94h134.4V1775.8z M499.3,3593.7c-1.2,2.6-2.8,5.6-5.1,6.8c-5.5,129.9-17.4,205.9-32.4,232.4
			c-20.2,34.2-49.8,34.2-63.2,34.2c-18.2,0-40.3-3-65.2-8.1c0.4-15-1.6-39.3-3.6-54.3c24.1,6,52.6,9.8,62.4,9.8
			c11.9,0,20.2-3.4,26.5-17.1c9.1-19.2,18.2-82,21.3-162.8h-97.2c-18.6,87.2-50.6,169.2-123.3,233.3c-9.1-9.4-28.1-24.8-40.7-32.9
			c65.6-54.3,96.4-126.9,111.1-200.8h-95.6v-50.4h105.1c4-29.5,4.7-54.7,6.7-87.6l64.8,6c-0.8,4.7-4.7,8.1-11.9,9.4
			c-2.4,27.3-3.6,47.4-7.1,72.6h101.2l9.5-3.8L499.3,3593.7z M292.2,2003v38.9H180V2003H292.2z M495.4,583c-1.6,3.4-5.5,6-8.7,8.1
			c-44.7,139.7-106.3,223.9-213,282c-8.3-12-22.9-30.3-37.1-41c98.8-50,156.5-125.2,186.1-220.9H306.5
			c-19.8,32.5-51.8,70.1-84.2,97.8c-9.5-10.3-27.3-26.1-40.7-35c51.4-42.3,100-109.8,124.1-181.2l62.8,15.8c-1.6,5.1-6.7,7.7-13,7.7
			c-6.3,15.4-14.2,30.3-20.9,44.4h112.6l7.1-3.8L495.4,583z M499.3,1011.2c-1.2,2.6-4,5.1-7.5,6.4c-35.6,130.3-96,193.1-215.4,229.4
			c-5.5-12.4-20.2-31.6-30-42.7c99.2-25.6,164.8-84.2,183.8-159.4H190.7v-50.4h260.8l5.5-4.3L499.3,1011.2z M214.8,3158.8
			c39.5,13.2,86.9,35.9,115.8,56.4l-26.1,48.7c-28.5-20.5-75.1-44-113-58.5L214.8,3158.8z M318.7,112l63.6,3.8
			c-0.4,4.7-4.7,9.8-12.6,10.7v60.2h81.4l9.1-4.3l43.5,19.2c-1.2,2.1-3.6,5.1-6.7,6.8C473.6,362.8,419.1,445.3,295,492.7
			c-6.7-12.4-22.9-33.3-33.6-45.7C371.3,407.3,421.9,338,435.3,237.6H248.8v91.4h-48.6V186.8h118.6V112z M201.3,3448
			c133.2-44.4,224.9-128.2,270.7-245.7c14.6,12.8,31.6,23.1,46.2,31.6c-49,116.6-143.5,207.6-274.3,257.6c-0.8,4.7-3.2,9.4-6.7,11.1
			L201.3,3448z M254.7,2285.4h-38.3v49.6h38.3V2285.4z M455.4,935.1H229.4V886h226.1V935.1z M495,2516.7l27.7,10.3
			c-0.4,3-2,5.6-4,7.7c-7.9,62-23.3,115.8-45.8,160.2c17.8,23.5,38.7,43.2,62.8,56.4c-10.7,9.4-24.9,28.6-32,41.4
			c-22.1-13.7-41.1-32-57.7-53.4c-15.8,20.9-33.6,38.9-53.7,53.4c-6.3-12.4-20.2-31.6-30.4-41.4c20.9-13.2,39.9-32.5,55.7-56.4
			c-15-28.6-27.3-61.5-37.1-96.6H380c-3.2,64.9-12.6,139.7-37.5,193.1c-8.7-8.1-28.1-20.5-39.5-24.8
			c32.4-66.7,34.8-164.5,34.8-232.8v-125.6h190.9v46.1h-147v64.1h105.5L495,2516.7z M498.5,2163.2h35.2v44.9H304.5v-44.9h49
			c2.4-13.2,4.7-27.8,7.1-43.2h-34v-43.6h40.3c1.6-10.3,2.8-20.9,4-30.8h-51.4v-44h199.6v44h-102c-1.2,9.8-2.8,20.1-4.3,30.8h85.8
			V2163.2z M333.7,2392.7v-161.5h173.9v159.4h-46.2v-14.1h-83v16.2H333.7z M461.4,2276.9h-83v53.8h83V2276.9z M380.8,2580.3
			l36.4-9.4c6.3,26.5,15.4,52.1,26.9,75.6c10.7-25.2,19-52.6,24.9-82h-87.7L380.8,2580.3z M452.7,2120.1h-46.2
			c-2.4,15-4.7,29.9-7.1,43.2h53.4V2120.1z M429.8,3489.5c16.2,16.2,36,43.2,46.2,60.7l-24.1,18.8c-9.1-16.2-31.2-46.1-44.7-61.1
			L429.8,3489.5z M493,3472.8c16.2,15.8,36.4,41.9,46.6,59l-24.1,18.8c-9.1-15.8-30.8-44.9-44.7-59.8L493,3472.8z"/>
	</defs>
	<use xlink:href="#SVGID_1_"  style="overflow:visible;fill:#CAD7DE;"/>
	<clipPath id="SVGID_00000156584068380646974950000005647138991869836675_">
		<use xlink:href="#SVGID_1_"  style="overflow:visible;"/>
	</clipPath>
</g>
</svg>
