<?xml version="1.0" encoding="utf-8"?>
<!-- Generator: Adobe Illustrator 26.0.2, SVG Export Plug-In . SVG Version: 6.00 Build 0)  -->
<svg version="1.1" id="Шар_1" xmlns="http://www.w3.org/2000/svg" xmlns:xlink="http://www.w3.org/1999/xlink" x="0px" y="0px"
	 viewBox="0 0 794.8 318.7" style="enable-background:new 0 0 794.8 318.7;" xml:space="preserve">
<style type="text/css">
	.st0{fill:none;stroke:#90BFD7;stroke-width:33;stroke-linecap:round;stroke-linejoin:round;stroke-miterlimit:10;}
	.st1{fill:none;stroke:#90BFD7;stroke-width:33;stroke-linejoin:round;stroke-miterlimit:10;}
	.st2{fill:none;stroke:#D8D871;stroke-width:33;stroke-linecap:round;stroke-linejoin:round;stroke-miterlimit:10;}
	.st3{fill:none;stroke:#D8D871;stroke-width:13;stroke-linecap:round;stroke-linejoin:round;stroke-miterlimit:10;}
</style>
<line class="st0" x1="74.6" y1="302.2" x2="74.6" y2="17.5"/>
<line class="st0" x1="16.5" y1="17.5" x2="132.6" y2="17.5"/>
<path class="st0" d="M210.3,17.6c32.7,1.7,55.2,73.4,57,132.7c2.1,69.5-23.5,150.1-57,151.6c-34.1,1.6-62.7-79.4-60.5-151.6
	C151.6,87.9,176.9,15.9,210.3,17.6z"/>
<path class="st0" d="M523.6,16.9c19.4,0.7,32.8,30.2,33.8,54.7c1.2,28.7-14,61.8-33.8,62.5c-20.3,0.7-37.2-32.7-35.9-62.5
	C488.8,45.9,503.8,16.2,523.6,16.9z"/>
<path class="st1" d="M634.3,19.8c16.4,6,32.5,25.5,33.8,52.3c1.5,29.6-15.9,53.1-33.8,59.8c-10.1,3.8-19.1,1.8-24.3,0
	c0-37.4,0-74.7,0-112.1C614.9,18.1,624,16,634.3,19.8z"/>
<path class="st0" d="M319,301.9c0-94.9-0.1-189.8-0.1-284.8c18.9,47.5,37.7,95.1,56.6,142.6c19.8-47.6,39.6-95.2,59.4-142.8
	c0,94.9,0,189.8,0,284.8"/>
<polyline class="st2" points="488.1,301.9 498.9,264.5 521.4,186 545.1,262.7 557.3,301.9 "/>
<line class="st3" x1="499.6" y1="269.6" x2="545.1" y2="270.3"/>
<path class="st2" d="M668.4,283.9c-2.8,3.8-15,19.9-29.5,17.2c-19.7-3.6-28.9-39.2-28.6-62.4c0.1-6.4,0.2-24.2,10.5-38.2
	c2.4-3.3,11-15,24.4-14.5c13.6,0.4,22,13,23.3,15.1"/>
<line class="st0" x1="720.2" y1="16.5" x2="720.2" y2="302.1"/>
<line class="st0" x1="778" y1="188.4" x2="778" y2="302.1"/>
<line class="st0" x1="777.7" y1="16.5" x2="778.3" y2="133.5"/>
<line class="st0" x1="721.2" y1="185.8" x2="778.2" y2="186.2"/>
</svg>
